<mxfile host="app.diagrams.net" modified="2023-07-29T12:17:32.823Z" agent="Mozilla/5.0 (Windows NT 10.0; Win64; x64) AppleWebKit/537.36 (KHTML, like Gecko) Chrome/115.0.0.0 Safari/537.36 Edg/115.0.1901.183" etag="dPGp6cI4FZpnYQiNlSiN" version="21.6.5" type="github">
  <diagram name="Page-1" id="58cdce13-f638-feb5-8d6f-7d28b1aa9fa0">
    <mxGraphModel dx="1742" dy="750" grid="1" gridSize="10" guides="1" tooltips="1" connect="1" arrows="1" fold="1" page="1" pageScale="1" pageWidth="1100" pageHeight="850" background="none" math="0" shadow="0">
      <root>
        <mxCell id="0" />
        <mxCell id="1" parent="0" />
        <mxCell id="382b91b5511bd0f7-1" value="" style="ellipse;html=1;shape=startState;fillColor=#000000;strokeColor=#ff0000;rounded=1;shadow=0;comic=0;labelBackgroundColor=none;fontFamily=Verdana;fontSize=12;fontColor=#000000;align=center;direction=south;" parent="1" vertex="1">
          <mxGeometry x="130" y="135" width="30" height="30" as="geometry" />
        </mxCell>
        <mxCell id="382b91b5511bd0f7-6" value="&lt;font style=&quot;font-size: 15px;&quot;&gt;BE_AUTH_INITALIZE&lt;/font&gt;" style="rounded=1;whiteSpace=wrap;html=1;arcSize=24;fillColor=#ffffc0;strokeColor=#ff0000;shadow=0;comic=0;labelBackgroundColor=none;fontFamily=Verdana;fontSize=12;fontColor=#000000;align=center;" parent="1" vertex="1">
          <mxGeometry x="280" y="120" width="180" height="60" as="geometry" />
        </mxCell>
        <mxCell id="EyutYtKu1SHdMu5Y15GH-21" style="edgeStyle=orthogonalEdgeStyle;rounded=0;orthogonalLoop=1;jettySize=auto;html=1;exitX=1;exitY=0.5;exitDx=0;exitDy=0;entryX=0;entryY=0.5;entryDx=0;entryDy=0;strokeColor=#FF0000;" edge="1" parent="1" source="382b91b5511bd0f7-7" target="EyutYtKu1SHdMu5Y15GH-7">
          <mxGeometry relative="1" as="geometry" />
        </mxCell>
        <mxCell id="382b91b5511bd0f7-7" value="&lt;font style=&quot;font-size: 15px;&quot;&gt;BE_AUTH_IDLE&lt;/font&gt;" style="rounded=1;whiteSpace=wrap;html=1;arcSize=24;fillColor=#ffffc0;strokeColor=#ff0000;shadow=0;comic=0;labelBackgroundColor=none;fontFamily=Verdana;fontSize=12;fontColor=#000000;align=center;" parent="1" vertex="1">
          <mxGeometry x="280" y="280" width="180" height="60" as="geometry" />
        </mxCell>
        <mxCell id="2a3bc250acf0617d-9" style="edgeStyle=orthogonalEdgeStyle;html=1;labelBackgroundColor=none;endArrow=open;endSize=8;strokeColor=#ff0000;fontFamily=Verdana;fontSize=12;align=left;" parent="1" source="382b91b5511bd0f7-1" target="382b91b5511bd0f7-6" edge="1">
          <mxGeometry relative="1" as="geometry" />
        </mxCell>
        <mxCell id="EyutYtKu1SHdMu5Y15GH-6" style="edgeStyle=orthogonalEdgeStyle;html=1;labelBackgroundColor=none;endArrow=open;endSize=8;strokeColor=#ff0000;fontFamily=Verdana;fontSize=12;align=left;" edge="1" parent="1" source="382b91b5511bd0f7-6" target="382b91b5511bd0f7-7">
          <mxGeometry relative="1" as="geometry">
            <mxPoint x="550" y="170" as="sourcePoint" />
            <mxPoint x="675" y="170" as="targetPoint" />
          </mxGeometry>
        </mxCell>
        <mxCell id="EyutYtKu1SHdMu5Y15GH-22" style="edgeStyle=orthogonalEdgeStyle;rounded=0;orthogonalLoop=1;jettySize=auto;html=1;exitX=0.25;exitY=1;exitDx=0;exitDy=0;entryX=0.25;entryY=0;entryDx=0;entryDy=0;strokeColor=#FF0000;" edge="1" parent="1" source="EyutYtKu1SHdMu5Y15GH-7" target="EyutYtKu1SHdMu5Y15GH-8">
          <mxGeometry relative="1" as="geometry" />
        </mxCell>
        <mxCell id="EyutYtKu1SHdMu5Y15GH-7" value="&lt;font style=&quot;font-size: 15px;&quot;&gt;BE_AUTH_REQUEST&lt;/font&gt;" style="rounded=1;whiteSpace=wrap;html=1;arcSize=24;fillColor=#ffffc0;strokeColor=#ff0000;shadow=0;comic=0;labelBackgroundColor=none;fontFamily=Verdana;fontSize=12;fontColor=#000000;align=center;" vertex="1" parent="1">
          <mxGeometry x="610" y="280" width="170" height="60" as="geometry" />
        </mxCell>
        <mxCell id="EyutYtKu1SHdMu5Y15GH-23" style="edgeStyle=orthogonalEdgeStyle;rounded=0;orthogonalLoop=1;jettySize=auto;html=1;exitX=0.75;exitY=0;exitDx=0;exitDy=0;entryX=0.75;entryY=1;entryDx=0;entryDy=0;strokeColor=#FF0000;" edge="1" parent="1" source="EyutYtKu1SHdMu5Y15GH-8" target="EyutYtKu1SHdMu5Y15GH-7">
          <mxGeometry relative="1" as="geometry" />
        </mxCell>
        <mxCell id="EyutYtKu1SHdMu5Y15GH-24" style="edgeStyle=orthogonalEdgeStyle;rounded=0;orthogonalLoop=1;jettySize=auto;html=1;exitX=0;exitY=0.5;exitDx=0;exitDy=0;strokeColor=#FF0000;" edge="1" parent="1" source="EyutYtKu1SHdMu5Y15GH-8" target="EyutYtKu1SHdMu5Y15GH-14">
          <mxGeometry relative="1" as="geometry" />
        </mxCell>
        <mxCell id="EyutYtKu1SHdMu5Y15GH-8" value="&lt;font style=&quot;font-size: 15px;&quot;&gt;BE_AUTH_RESPONSE&lt;/font&gt;" style="rounded=1;whiteSpace=wrap;html=1;arcSize=24;fillColor=#ffffc0;strokeColor=#ff0000;shadow=0;comic=0;labelBackgroundColor=none;fontFamily=Verdana;fontSize=12;fontColor=#000000;align=center;" vertex="1" parent="1">
          <mxGeometry x="610" y="420" width="170" height="60" as="geometry" />
        </mxCell>
        <mxCell id="EyutYtKu1SHdMu5Y15GH-28" value="" style="edgeStyle=orthogonalEdgeStyle;rounded=0;orthogonalLoop=1;jettySize=auto;html=1;startArrow=classic;startFill=1;endArrow=none;endFill=0;strokeColor=#FF0000;" edge="1" parent="1" source="EyutYtKu1SHdMu5Y15GH-13" target="EyutYtKu1SHdMu5Y15GH-8">
          <mxGeometry relative="1" as="geometry" />
        </mxCell>
        <mxCell id="EyutYtKu1SHdMu5Y15GH-33" style="edgeStyle=orthogonalEdgeStyle;rounded=0;orthogonalLoop=1;jettySize=auto;html=1;exitX=1;exitY=0.5;exitDx=0;exitDy=0;entryX=0.5;entryY=0.833;entryDx=0;entryDy=0;entryPerimeter=0;strokeColor=#FF0000;" edge="1" parent="1" source="EyutYtKu1SHdMu5Y15GH-13" target="EyutYtKu1SHdMu5Y15GH-29">
          <mxGeometry relative="1" as="geometry">
            <mxPoint x="950" y="590" as="targetPoint" />
          </mxGeometry>
        </mxCell>
        <mxCell id="EyutYtKu1SHdMu5Y15GH-13" value="&lt;span style=&quot;font-size: 15px;&quot;&gt;BE_AUTH_FAIL&lt;/span&gt;" style="rounded=1;whiteSpace=wrap;html=1;arcSize=24;fillColor=#ffffc0;strokeColor=#ff0000;shadow=0;comic=0;labelBackgroundColor=none;fontFamily=Verdana;fontSize=12;fontColor=#000000;align=center;" vertex="1" parent="1">
          <mxGeometry x="605" y="560" width="180" height="60" as="geometry" />
        </mxCell>
        <mxCell id="EyutYtKu1SHdMu5Y15GH-25" style="edgeStyle=orthogonalEdgeStyle;rounded=0;orthogonalLoop=1;jettySize=auto;html=1;exitX=0.5;exitY=0;exitDx=0;exitDy=0;strokeColor=#FF0000;" edge="1" parent="1" source="EyutYtKu1SHdMu5Y15GH-14" target="382b91b5511bd0f7-7">
          <mxGeometry relative="1" as="geometry" />
        </mxCell>
        <mxCell id="EyutYtKu1SHdMu5Y15GH-14" value="&lt;font style=&quot;font-size: 15px;&quot;&gt;BE_AUTH_TIMEOUT&lt;/font&gt;" style="rounded=1;whiteSpace=wrap;html=1;arcSize=24;fillColor=#ffffc0;strokeColor=#ff0000;shadow=0;comic=0;labelBackgroundColor=none;fontFamily=Verdana;fontSize=12;fontColor=#000000;align=center;" vertex="1" parent="1">
          <mxGeometry x="280" y="420" width="180" height="60" as="geometry" />
        </mxCell>
        <mxCell id="EyutYtKu1SHdMu5Y15GH-32" style="edgeStyle=orthogonalEdgeStyle;rounded=0;orthogonalLoop=1;jettySize=auto;html=1;exitX=0.5;exitY=1;exitDx=0;exitDy=0;entryX=0.5;entryY=0;entryDx=0;entryDy=0;strokeColor=#FF0000;" edge="1" parent="1" target="EyutYtKu1SHdMu5Y15GH-30">
          <mxGeometry relative="1" as="geometry">
            <mxPoint x="970" y="480" as="sourcePoint" />
          </mxGeometry>
        </mxCell>
        <mxCell id="EyutYtKu1SHdMu5Y15GH-15" value="&lt;font style=&quot;font-size: 15px;&quot;&gt;BE_AUTH_SUCCESS&lt;/font&gt;" style="rounded=1;whiteSpace=wrap;html=1;arcSize=24;fillColor=#ffffc0;strokeColor=#ff0000;shadow=0;comic=0;labelBackgroundColor=none;fontFamily=Verdana;fontSize=12;fontColor=#000000;align=center;" vertex="1" parent="1">
          <mxGeometry x="880" y="420" width="180" height="60" as="geometry" />
        </mxCell>
        <mxCell id="EyutYtKu1SHdMu5Y15GH-26" value="" style="endArrow=classic;html=1;rounded=0;exitX=1;exitY=0.5;exitDx=0;exitDy=0;strokeColor=#FF0000;" edge="1" parent="1" source="EyutYtKu1SHdMu5Y15GH-8">
          <mxGeometry width="50" height="50" relative="1" as="geometry">
            <mxPoint x="520" y="440" as="sourcePoint" />
            <mxPoint x="880" y="450" as="targetPoint" />
          </mxGeometry>
        </mxCell>
        <mxCell id="EyutYtKu1SHdMu5Y15GH-30" value="" style="ellipse;whiteSpace=wrap;html=1;aspect=fixed;" vertex="1" parent="1">
          <mxGeometry x="955" y="575" width="30" height="30" as="geometry" />
        </mxCell>
        <mxCell id="EyutYtKu1SHdMu5Y15GH-29" value="" style="ellipse;html=1;shape=startState;fillColor=#000000;strokeColor=#ff0000;rounded=1;shadow=0;comic=0;labelBackgroundColor=none;fontFamily=Verdana;fontSize=12;fontColor=#000000;align=center;direction=south;" vertex="1" parent="1">
          <mxGeometry x="955" y="575" width="30" height="30" as="geometry" />
        </mxCell>
      </root>
    </mxGraphModel>
  </diagram>
</mxfile>
